<svg width="21" height="22" viewBox="0 0 21 22" fill="none" xmlns="http://www.w3.org/2000/svg">
<path d="M10.5 9.33116C9.21862 9.33116 8.13492 8.87991 7.24888 7.97742C6.3626 7.07469 5.91946 5.97075 5.91946 4.66558C5.91946 3.36041 6.3626 2.25646 7.24888 1.35373C8.13492 0.451244 9.21862 0 10.5 0C11.7814 0 12.8652 0.451244 13.7515 1.35373C14.6375 2.25646 15.0805 3.36041 15.0805 4.66558C15.0805 5.97075 14.6375 7.07469 13.7515 7.97742C12.8652 8.87991 11.7814 9.33116 10.5 9.33116ZM0 22V19.0212C0 18.3274 0.184279 17.6951 0.552836 17.1245C0.921393 16.5536 1.41832 16.1092 2.04362 15.7912C3.42953 15.0973 4.832 14.5769 6.25102 14.23C7.67005 13.8831 9.08532 13.7096 10.4968 13.7096C11.9083 13.7096 13.3247 13.8831 14.7458 14.23C16.1669 14.5769 17.5705 15.0973 18.9564 15.7912C19.5819 16.1092 20.0788 16.5536 20.4472 17.1245C20.8157 17.6951 21 18.3274 21 19.0212V22H0ZM1.90268 20.062H19.0973V19.0212C19.0973 18.6862 19.0092 18.3931 18.8331 18.1419C18.6569 17.8907 18.4044 17.6813 18.0755 17.5139C16.9245 16.9636 15.689 16.515 14.3691 16.168C13.0495 15.8211 11.7598 15.6476 10.5 15.6476C9.24023 15.6476 7.95052 15.8151 6.63086 16.1501C5.31096 16.485 4.0755 16.9396 2.9245 17.5139C2.59564 17.6574 2.34312 17.8608 2.16695 18.124C1.99077 18.3872 1.90268 18.6862 1.90268 19.0212V20.062ZM10.5 7.39315C11.2517 7.39315 11.8859 7.12996 12.4027 6.60359C12.9195 6.07722 13.1779 5.43121 13.1779 4.66558C13.1779 3.89995 12.9195 3.25394 12.4027 2.72757C11.8859 2.2012 11.2517 1.93801 10.5 1.93801C9.74832 1.93801 9.11409 2.2012 8.59731 2.72757C8.08054 3.25394 7.82215 3.89995 7.82215 4.66558C7.82215 5.43121 8.08054 6.07722 8.59731 6.60359C9.11409 7.12996 9.74832 7.39315 10.5 7.39315Z" fill="#D9D9D9"/>
</svg>
