<svg width="33" height="33" viewBox="0 0 33 33" fill="none" xmlns="http://www.w3.org/2000/svg">
<path d="M16.5 24.1421C18.6311 24.1421 20.4376 23.4012 21.9194 21.9194C23.4012 20.4376 24.1421 18.6311 24.1421 16.5C24.1421 14.3689 23.4012 12.5624 21.9194 11.0806C20.4376 9.5988 18.6311 8.85789 16.5 8.85789C14.3689 8.85789 12.5624 9.5988 11.0806 11.0806C9.5988 12.5624 8.85789 14.3689 8.85789 16.5C8.85789 18.6311 9.5988 20.4376 11.0806 21.9194C12.5624 23.4012 14.3689 24.1421 16.5 24.1421ZM16.5074 33C14.226 33 12.0809 32.5671 10.0719 31.7013C8.063 30.8355 6.31559 29.6603 4.82972 28.1759C3.34357 26.6915 2.16714 24.9461 1.30046 22.9398C0.433487 20.9331 0 18.789 0 16.5074C0 14.2185 0.433776 12.0664 1.30133 10.0511C2.16888 8.03579 3.34632 6.28259 4.83363 4.79151C6.32095 3.30072 8.06633 2.12951 10.0698 1.27788C12.0735 0.42596 14.2145 0 16.4926 0C18.7812 0 20.933 0.425382 22.948 1.27615C24.9633 2.12691 26.7165 3.2971 28.2076 4.78674C29.699 6.27637 30.8705 8.02797 31.7221 10.0416C32.574 12.0551 33 14.2066 33 16.4961C33 18.7855 32.5746 20.9298 31.7239 22.9289C30.8731 24.928 29.703 26.672 28.2137 28.1607C26.7246 29.6498 24.9736 30.8287 22.9606 31.6974C20.9473 32.5658 18.7963 33 16.5074 33ZM16.5 30.6553C20.4516 30.6553 23.7988 29.284 26.5416 26.5416C29.284 23.7988 30.6553 20.4516 30.6553 16.5C30.6553 12.5484 29.284 9.20121 26.5416 6.45845C23.7988 3.71597 20.4516 2.34474 16.5 2.34474C12.5484 2.34474 9.20121 3.71597 6.45845 6.45845C3.71597 9.20121 2.34474 12.5484 2.34474 16.5C2.34474 20.4516 3.71597 23.7988 6.45845 26.5416C9.20121 29.284 12.5484 30.6553 16.5 30.6553Z" fill="#D9D9D9"/>
</svg>
