<svg width="20" height="24" viewBox="0 0 20 24" fill="none" xmlns="http://www.w3.org/2000/svg">
<path d="M4.46565 24V3.83699L1.45038 6.84639L0 5.41693L5.49618 0L10.9924 5.41693L9.54198 6.80878L6.52672 3.83699V15.0846C7.34097 13.931 8.32061 13.047 9.46565 12.4326C10.6107 11.8182 11.8702 11.511 13.2443 11.511C13.7023 11.511 14.1603 11.5235 14.6183 11.5486C15.0763 11.5737 15.5216 11.6113 15.9542 11.6614L13.0534 8.84013L14.5038 7.41066L20 12.8276L14.5038 18.2445L13.0534 16.815L16.2595 13.6928C15.827 13.6426 15.3499 13.5987 14.8282 13.5611C14.3066 13.5235 13.8168 13.5047 13.3588 13.5047C11.9338 13.5298 10.5725 13.9812 9.27481 14.8589C7.9771 15.7367 7.06107 17.0408 6.52672 18.7712V24H4.46565Z" fill="#D9D9D9"/>
</svg>
