<svg width="21" height="21" viewBox="0 0 21 21" fill="none" xmlns="http://www.w3.org/2000/svg">
<path d="M19.8435 21L12.1739 13.3081C11.5652 13.8169 10.8196 14.2086 9.93696 14.4833C9.05435 14.758 8.21739 14.8953 7.42609 14.8953C5.35185 14.8953 3.59557 14.1746 2.15722 12.7331C0.719073 11.2918 0 9.5316 0 7.45256C0 5.37372 0.718667 3.61192 2.156 2.16715C3.59313 0.722384 5.3482 0 7.42122 0C9.49403 0 11.2507 0.721163 12.6913 2.16349C14.1319 3.60602 14.8522 5.36741 14.8522 7.44767C14.8522 8.30233 14.7152 9.1468 14.4413 9.9811C14.1674 10.8154 13.787 11.5276 13.3 12.1177L21 19.8401L19.8435 21ZM7.42609 13.2471C9.06956 13.2471 10.4442 12.6926 11.55 11.5836C12.6558 10.4746 13.2087 9.09593 13.2087 7.44767C13.2087 5.79942 12.6558 4.42078 11.55 3.31177C10.4442 2.20276 9.06956 1.64826 7.42609 1.64826C5.78261 1.64826 4.40797 2.20276 3.30217 3.31177C2.19638 4.42078 1.64348 5.79942 1.64348 7.44767C1.64348 9.09593 2.19638 10.4746 3.30217 11.5836C4.40797 12.6926 5.78261 13.2471 7.42609 13.2471Z" fill="#D9D9D9"/>
</svg>
